<svg xmlns="http://www.w3.org/2000/svg" data-name="Layer 1" viewBox="0 0 512 512" id="calender"><path fill="#f1f6f9" d="M478.87 71.82V474.5a29.998 29.998 0 0 1-30 30H63.13a29.998 29.998 0 0 1-30-30V71.82a30.052 30.052 0 0 1 30.05-30.05h385.64a30.052 30.052 0 0 1 30.05 30.05Z"></path><path fill="#dde8ef" d="m448.869 41.771.001.049V392.5a82 82 0 0 1-82 82H33.13a29.998 29.998 0 0 0 30 30h385.74a30 30 0 0 0 30-30V71.82a30.05 30.05 0 0 0-30.001-30.049Z"></path><path fill="#e53950" d="M478.87 71.82v77.13H33.13V71.82a30.052 30.052 0 0 1 30.05-30.05h385.64a30.052 30.052 0 0 1 30.05 30.05Z"></path><path fill="#ca2e43" d="m448.869 41.771.001.049v24.077a53.053 53.053 0 0 1-53.053 53.053H33.13v30h445.74V71.82a30.05 30.05 0 0 0-30.001-30.049zM110.492 86.63c2.267 3.124 4.04 5.566 3.3 7.11-1.783 3.714-18.789 3.582-27.714-6.5-5.137-5.803-5.8-12.871-5.896-15.91V41.77h15v29.56a7.812 7.812 0 0 0 7.81 7.8c4.255 0 5.232 4.376 7.5 7.5z"></path><path fill="#dde8ef" d="M129.3 41.774V22.807A7.815 7.815 0 0 0 121.493 15h-3.443a7.816 7.816 0 0 0-7.807 7.807v48.52a7.816 7.816 0 0 0 7.807 7.806 7.5 7.5 0 0 1 0 15 22.833 22.833 0 0 1-22.807-22.807v-48.52A22.833 22.833 0 0 1 118.05 0h3.443A22.832 22.832 0 0 1 144.3 22.807v18.967Z"></path><path fill="#ca2e43" d="M383.01 86.63c2.267 3.124 4.04 5.566 3.3 7.11-1.783 3.714-18.788 3.582-27.714-6.5-5.137-5.803-5.8-12.871-5.896-15.91V41.77h15v29.56a7.812 7.812 0 0 0 7.81 7.8c4.255 0 5.232 4.376 7.5 7.5zm-136.22 0c2.268 3.124 4.04 5.566 3.3 7.11-1.782 3.714-18.788 3.582-27.713-6.5-5.137-5.803-5.801-12.871-5.897-15.91V41.77h15v29.56a7.812 7.812 0 0 0 7.81 7.8c4.256 0 5.233 4.376 7.5 7.5z"></path><path fill="#dde8ef" d="M401.757 41.774V22.807A7.816 7.816 0 0 0 393.95 15h-3.443a7.815 7.815 0 0 0-7.807 7.807v48.52a7.815 7.815 0 0 0 7.807 7.806 7.5 7.5 0 0 1 0 15A22.832 22.832 0 0 1 367.7 71.326v-48.52A22.832 22.832 0 0 1 390.507 0h3.443a22.833 22.833 0 0 1 22.807 22.807v18.967zm-136.228 0V22.807A7.816 7.816 0 0 0 257.722 15h-3.444a7.816 7.816 0 0 0-7.807 7.807v48.52a7.816 7.816 0 0 0 7.807 7.806 7.5 7.5 0 0 1 0 15 22.833 22.833 0 0 1-22.807-22.807v-48.52A22.833 22.833 0 0 1 254.278 0h3.444a22.833 22.833 0 0 1 22.807 22.807v18.967z"></path><path fill="#e53950" d="M315.947 399.545a53.875 53.875 0 0 1-42.022-19.99 15 15 0 1 1 23.263-18.942 24.185 24.185 0 1 0 18.77-39.444c-9.867 0-13.705 1.407-18.852 3.724-.54.243-.885.411-.996.467a14.976 14.976 0 0 1-21.622-15.81l9.536-57.56a15 15 0 0 1 14.799-12.548h48.14a15 15 0 1 1 0 30h-35.421l-3.648 22.019c2.465-.193 5.131-.292 8.065-.292a54.424 54.424 0 0 1 39.296 16.886 53.75 53.75 0 0 1 14.818 40.164 54.348 54.348 0 0 1-53.003 51.314q-.562.011-1.123.012Z"></path><path fill="#ca2e43" d="M346.963 254.441a15 15 0 0 1-15 15h15a15 15 0 0 0 0-30h-15a15 15 0 0 1 15 15zm-49.775 106.172a14.99 14.99 0 0 0-19.128-3.502 14.932 14.932 0 0 1 4.128 3.502 24.166 24.166 0 0 0 26.253 7.74 24.08 24.08 0 0 1-11.253-7.74z"></path><path fill="#ca2e43" d="M355.255 308.055a54.424 54.424 0 0 0-39.296-16.886c-2.934 0-5.6.1-8.065.292l3.648-22.02h-15l-3.648 22.02c2.465-.193 5.131-.292 8.065-.292a54.424 54.424 0 0 1 39.296 16.886 53.75 53.75 0 0 1 14.818 40.164 54.37 54.37 0 0 1-46.628 50.792 54.857 54.857 0 0 0 7.502.533q.56 0 1.123-.01a54.348 54.348 0 0 0 53.003-51.315 53.75 53.75 0 0 0-14.818-40.164Z"></path><path fill="#ca2e43" d="m282.106 324.893-.298.136a14.93 14.93 0 0 0 14.302.331c.11-.056.456-.224.996-.467a35.743 35.743 0 0 1 9.434-3.075 24.402 24.402 0 0 0-5.581-.649c-9.868 0-13.706 1.407-18.853 3.724Z"></path><path fill="#e53950" d="M227.242 399.25h-.047l-65.293-.202a15 15 0 0 1-11.863-24.119c.184-.244 5.845-7.794 45.227-64.063 5.804-8.293 9.548-15.669 11.137-21.936l.39-3.047a17.79 17.79 0 0 0-35.22-2.652 15 15 0 0 1-29.437-5.782 47.79 47.79 0 0 1 94.675 9.246 15.005 15.005 0 0 1-.121 1.901l-.634 4.956a15.024 15.024 0 0 1-.266 1.487c-2.358 10.167-7.723 21.28-15.945 33.029a13282.482 13282.482 0 0 1-28.839 41.07l36.282.111a15 15 0 0 1-.046 30Z"></path><path fill="#ca2e43" d="M156.573 283.231a14.952 14.952 0 0 1-7.22 10.086 14.972 14.972 0 0 0 22.22-10.086 17.766 17.766 0 0 1 9.932-12.65 17.745 17.745 0 0 0-24.932 12.65Z"></path><path fill="#ca2e43" d="m227.288 369.249-36.282-.112c6.707-9.504 15.994-22.717 28.839-41.07 8.223-11.749 13.587-22.861 15.945-33.028a15.02 15.02 0 0 0 .266-1.487l.634-4.956a15.007 15.007 0 0 0 .12-1.901 47.719 47.719 0 0 0-55.254-47.187 47.858 47.858 0 0 1 40.255 47.187 15.007 15.007 0 0 1-.121 1.901l-.634 4.956a15.02 15.02 0 0 1-.266 1.487c-2.358 10.167-7.722 21.28-15.945 33.028a13283.872 13283.872 0 0 1-28.839 41.07l36.282.112a14.99 14.99 0 0 1 .816 29.957l14.091.043h.047a15 15 0 0 0 .046-30Z"></path></svg>